<?xml version="1.0" standalone="no"?><!DOCTYPE svg PUBLIC "-//W3C//DTD SVG 1.1//EN" "http://www.w3.org/Graphics/SVG/1.1/DTD/svg11.dtd"><svg width="100%" height="100%" viewBox="0 0 138 154" version="1.1" xmlns="http://www.w3.org/2000/svg" xmlns:xlink="http://www.w3.org/1999/xlink" xml:space="preserve" style="fill-rule:evenodd;clip-rule:evenodd;stroke-linejoin:round;stroke-miterlimit:1.41421;"><g id="Layer 1"><path d="M127.267,118.268c0,4.97 -4.029,9 -9,9l-99.135,0c-4.971,0 -9,-4.03 -9,-9l0,-99.136c0,-4.97 4.029,-9 9,-9l99.135,0c4.971,0 9,4.03 9,9l0,99.136Z" style="fill:#2e9f48;fill-rule:nonzero;"/><path d="M31.044,143.365c0,-0.912 -0.255,-1.656 -0.768,-2.232c-0.512,-0.576 -1.176,-0.864 -1.992,-0.864c-0.399,0 -0.84,0.08 -1.32,0.24l0,5.664c0.336,0.145 0.76,0.216 1.272,0.216c0.849,0 1.528,-0.276 2.04,-0.827c0.513,-0.553 0.768,-1.284 0.768,-2.197M34.548,143.149c0,1.745 -0.54,3.169 -1.62,4.272c-1.08,1.104 -2.468,1.656 -4.164,1.656c-0.624,0 -1.224,-0.071 -1.8,-0.216l0,4.128l-3.648,0.624l0,-15.551l3.648,0c0.705,-0.193 1.4,-0.289 2.088,-0.289c1.665,0 2.996,0.492 3.996,1.477c1,0.983 1.5,2.284 1.5,3.899" style="fill:#2e9f48;fill-rule:nonzero;"/><path d="M38.988,148.573l-3.648,0l0,-10.128l3.648,-0.672l0,10.8ZM39.156,134.053c0,0.544 -0.192,1.012 -0.576,1.404c-0.384,0.393 -0.857,0.588 -1.416,0.588c-0.544,0 -1.012,-0.195 -1.404,-0.588c-0.392,-0.392 -0.588,-0.86 -0.588,-1.404c0,-0.559 0.196,-1.032 0.588,-1.416c0.392,-0.384 0.86,-0.576 1.404,-0.576c0.559,0 1.032,0.192 1.416,0.576c0.384,0.384 0.576,0.857 0.576,1.416" style="fill:#2e9f48;fill-rule:nonzero;"/><path d="M47.628,142.357c-0.096,-1.599 -0.816,-2.4 -2.16,-2.4c-1.312,0 -2.112,0.801 -2.4,2.4l4.56,0ZM50.412,142.333c0,0.352 -0.032,0.825 -0.096,1.416l-7.272,0c0.208,1.761 1.248,2.64 3.12,2.64c1.089,0 2.176,-0.408 3.264,-1.224l0.432,0l-0.36,2.928c-1.328,0.656 -2.655,0.984 -3.984,0.984c-1.776,0 -3.192,-0.492 -4.248,-1.476c-1.056,-0.984 -1.584,-2.299 -1.584,-3.947c0,-1.76 0.556,-3.217 1.668,-4.369c1.112,-1.152 2.516,-1.728 4.212,-1.728c1.536,0 2.728,0.417 3.576,1.248c0.848,0.833 1.272,2.008 1.272,3.528" style="fill:#2e9f48;fill-rule:nonzero;"/><path d="M58.164,145.789l0,-5.328c-0.448,-0.144 -0.864,-0.216 -1.248,-0.216c-0.832,0 -1.512,0.297 -2.04,0.888c-0.528,0.592 -0.792,1.344 -0.792,2.256c0,0.832 0.212,1.509 0.636,2.028c0.424,0.52 0.98,0.78 1.668,0.78c0.608,0 1.2,-0.135 1.776,-0.408M61.812,148.453l-3.264,0.624l0,-1.008c-1.12,0.672 -2.152,1.008 -3.096,1.008c-1.376,0 -2.532,-0.531 -3.468,-1.596c-0.936,-1.063 -1.404,-2.388 -1.404,-3.972c0,-1.695 0.512,-3.111 1.536,-4.248c1.024,-1.136 2.304,-1.704 3.84,-1.704c0.672,0 1.408,0.144 2.208,0.432l0,-5.928l3.648,-0.672l0,17.064Z" style="fill:#2e9f48;fill-rule:nonzero;"/><path d="M75.996,143.365c0,-0.912 -0.256,-1.656 -0.768,-2.232c-0.513,-0.576 -1.176,-0.864 -1.992,-0.864c-0.4,0 -0.84,0.08 -1.32,0.24l0,5.664c0.336,0.145 0.759,0.216 1.272,0.216c0.848,0 1.527,-0.276 2.04,-0.827c0.512,-0.553 0.768,-1.284 0.768,-2.197M79.5,143.149c0,1.745 -0.54,3.169 -1.62,4.272c-1.08,1.104 -2.469,1.656 -4.164,1.656c-0.624,0 -1.224,-0.071 -1.8,-0.216l0,4.128l-3.648,0.624l0,-15.551l3.648,0c0.704,-0.193 1.399,-0.289 2.088,-0.289c1.664,0 2.995,0.492 3.996,1.477c0.999,0.983 1.5,2.284 1.5,3.899" style="fill:#2e9f48;fill-rule:nonzero;"/><path d="M83.94,148.573l-3.648,0l0,-10.128l3.648,-0.672l0,10.8ZM84.108,134.053c0,0.544 -0.192,1.012 -0.576,1.404c-0.384,0.393 -0.857,0.588 -1.416,0.588c-0.544,0 -1.012,-0.195 -1.404,-0.588c-0.393,-0.392 -0.588,-0.86 -0.588,-1.404c0,-0.559 0.195,-1.032 0.588,-1.416c0.392,-0.384 0.86,-0.576 1.404,-0.576c0.559,0 1.032,0.192 1.416,0.576c0.384,0.384 0.576,0.857 0.576,1.416" style="fill:#2e9f48;fill-rule:nonzero;"/><path d="M93.084,143.365c0,-0.912 -0.256,-1.656 -0.768,-2.232c-0.513,-0.576 -1.176,-0.864 -1.992,-0.864c-0.4,0 -0.84,0.08 -1.32,0.24l0,5.664c0.336,0.145 0.759,0.216 1.272,0.216c0.848,0 1.527,-0.276 2.04,-0.827c0.512,-0.553 0.768,-1.284 0.768,-2.197M96.588,143.149c0,1.745 -0.54,3.169 -1.62,4.272c-1.08,1.104 -2.469,1.656 -4.164,1.656c-0.624,0 -1.224,-0.071 -1.8,-0.216l0,4.128l-3.648,0.624l0,-15.551l3.648,0c0.704,-0.193 1.399,-0.289 2.088,-0.289c1.664,0 2.995,0.492 3.996,1.477c0.999,0.983 1.5,2.284 1.5,3.899" style="fill:#2e9f48;fill-rule:nonzero;"/><path d="M104.676,142.357c-0.096,-1.599 -0.816,-2.4 -2.16,-2.4c-1.313,0 -2.112,0.801 -2.4,2.4l4.56,0ZM107.46,142.333c0,0.352 -0.033,0.825 -0.096,1.416l-7.272,0c0.207,1.761 1.248,2.64 3.12,2.64c1.088,0 2.175,-0.408 3.264,-1.224l0.432,0l-0.36,2.928c-1.329,0.656 -2.656,0.984 -3.984,0.984c-1.776,0 -3.192,-0.492 -4.248,-1.476c-1.056,-0.984 -1.584,-2.299 -1.584,-3.947c0,-1.76 0.555,-3.217 1.668,-4.369c1.111,-1.152 2.515,-1.728 4.212,-1.728c1.536,0 2.727,0.417 3.576,1.248c0.847,0.833 1.272,2.008 1.272,3.528" style="fill:#2e9f48;fill-rule:nonzero;"/><path d="M115.667,141.733c-0.752,-0.079 -1.272,-0.12 -1.56,-0.12c-0.832,0 -1.412,0.141 -1.74,0.42c-0.328,0.28 -0.492,0.773 -0.492,1.476l0,5.064l-3.648,0l0,-10.512l3.48,0l0,1.873l0.072,0c0.176,-0.273 0.368,-0.553 0.576,-0.841c0.672,-0.879 1.512,-1.32 2.52,-1.32c0.272,0 0.536,0.016 0.792,0.048l0,3.912Z" style="fill:#2e9f48;fill-rule:nonzero;"/><path d="M89.632,75.666c0,-3.264 -0.917,-5.927 -2.748,-7.988c-1.833,-2.061 -4.208,-3.091 -7.128,-3.091c-1.432,0 -3.005,0.288 -4.723,0.858l0,20.269c1.202,0.514 2.717,0.772 4.55,0.772c3.035,0 5.468,-0.987 7.301,-2.962c1.831,-1.975 2.748,-4.595 2.748,-7.858M102.17,74.893c0,6.241 -1.932,11.335 -5.796,15.287c-3.865,3.949 -8.833,5.924 -14.901,5.924c-2.232,0 -4.38,-0.256 -6.44,-0.772l0,14.772l-13.054,2.231l0,-51.02l13.054,-4.63c2.518,-0.686 5.009,-1.03 7.471,-1.03c5.953,0 10.72,1.762 14.299,5.284c3.577,3.519 5.367,8.172 5.367,13.954" style="fill:#0a492c;fill-rule:nonzero;"/><path d="M88.132,74.166c0,-3.264 -0.917,-5.927 -2.748,-7.988c-1.833,-2.061 -4.208,-3.091 -7.128,-3.091c-1.432,0 -3.005,0.288 -4.723,0.858l0,20.269c1.202,0.514 2.717,0.772 4.55,0.772c3.035,0 5.468,-0.987 7.301,-2.962c1.831,-1.975 2.748,-4.595 2.748,-7.858M100.67,73.393c0,6.241 -1.932,11.335 -5.796,15.287c-3.865,3.949 -8.833,5.924 -14.901,5.924c-2.232,0 -4.38,-0.256 -6.44,-0.772l0,14.772l-13.054,2.231l0,-51.02l13.054,-4.63c2.518,-0.686 5.009,-1.03 7.471,-1.03c5.953,0 10.72,1.762 14.299,5.284c3.577,3.519 5.367,8.172 5.367,13.954" style="fill:#fff;fill-rule:nonzero;"/><path d="M65.882,48.076c0,-3.264 -0.917,-5.927 -2.748,-7.988c-1.833,-2.061 -4.208,-3.091 -7.128,-3.091c-1.432,0 -3.005,0.288 -4.723,0.858l0,20.269c1.202,0.514 2.717,0.772 4.55,0.772c3.035,0 5.468,-0.987 7.301,-2.962c1.831,-1.975 2.748,-4.595 2.748,-7.858M78.42,47.303c0,6.241 -1.932,11.335 -5.796,15.287c-3.865,3.949 -8.833,5.924 -14.901,5.924c-2.232,0 -4.38,-0.256 -6.44,-0.772l0,14.772l-13.054,2.231l0,-55.65l13.054,0c2.518,-0.686 5.009,-1.03 7.471,-1.03c5.953,0 10.72,1.762 14.299,5.284c3.577,3.519 5.367,8.172 5.367,13.954" style="fill:#0a492c;fill-rule:nonzero;"/><path d="M64.382,46.576c0,-3.264 -0.917,-5.927 -2.748,-7.988c-1.833,-2.061 -4.208,-3.091 -7.128,-3.091c-1.432,0 -3.005,0.288 -4.723,0.858l0,20.269c1.202,0.514 2.717,0.772 4.55,0.772c3.035,0 5.468,-0.987 7.301,-2.962c1.831,-1.975 2.748,-4.595 2.748,-7.858M76.92,45.803c0,6.241 -1.932,11.335 -5.796,15.287c-3.865,3.949 -8.833,5.924 -14.901,5.924c-2.232,0 -4.38,-0.256 -6.44,-0.772l0,14.772l-13.054,2.231l0,-55.65l13.054,0c2.518,-0.686 5.009,-1.03 7.471,-1.03c5.953,0 10.72,1.762 14.299,5.284c3.577,3.519 5.367,8.172 5.367,13.954" style="fill:#fff;fill-rule:nonzero;"/><path d="M18.974,120.825l99.45,0l0.037,0l0.031,-0.001l0.031,-0.001l0.031,-0.001l0.031,-0.002l0.03,-0.002l0.031,-0.003l0.03,-0.003l0.03,-0.003l0.03,-0.004l0.03,-0.004l0.03,-0.004l0.03,-0.005l0.029,-0.005l0.029,-0.005l0.029,-0.006l0.03,-0.006l0.029,-0.007l0.028,-0.006l0.029,-0.008l0.029,-0.007l0.028,-0.008l0.028,-0.008l0.028,-0.009l0.028,-0.009l0.028,-0.009l0.027,-0.009l0.028,-0.01l0.027,-0.01l0.027,-0.011l0.027,-0.011l0.027,-0.011l0.027,-0.011l0.026,-0.012l0.027,-0.012l0.026,-0.013l0.026,-0.012l0.026,-0.013l0.026,-0.014l0.025,-0.013l0.025,-0.014l0.025,-0.015l0.025,-0.014l0.025,-0.015l0.025,-0.015l0.024,-0.016l0.024,-0.015l0.025,-0.016l0.023,-0.017l0.02,-0.014l0.051,-0.036l0.045,-0.035l0.045,-0.037l0.044,-0.037l0.043,-0.038l0.043,-0.04l0.041,-0.04l0.04,-0.041l0.04,-0.042l0.038,-0.043l0.037,-0.045l0.036,-0.045l0.036,-0.045l0.036,-0.051l0.014,-0.02l0.017,-0.023l0.016,-0.024l0.015,-0.025l0.016,-0.024l0.015,-0.025l0.015,-0.024l0.014,-0.025l0.015,-0.025l0.013,-0.026l0.014,-0.025l0.014,-0.026l0.013,-0.026l0.012,-0.026l0.013,-0.026l0.012,-0.026l0.012,-0.027l0.011,-0.027l0.011,-0.026l0.011,-0.028l0.011,-0.027l0.01,-0.027l0.01,-0.028l0.009,-0.027l0.009,-0.028l0.009,-0.028l0.009,-0.028l0.008,-0.028l0.008,-0.028l0.007,-0.029l0.008,-0.029l0.006,-0.028l0.007,-0.029l0.006,-0.029l0.006,-0.029l0.005,-0.03l0.005,-0.029l0.005,-0.03l0.004,-0.03l0.004,-0.03l0.004,-0.03l0.003,-0.03l0.003,-0.03l0.003,-0.031l0.002,-0.03l0.002,-0.031l0.001,-0.031l0.001,-0.031l0.001,-0.031l0,-0.037l0,-99.449l0,-0.036l-0.001,-0.031l-0.001,-0.031l-0.001,-0.031l-0.002,-0.031l-0.002,-0.031l-0.003,-0.03l-0.003,-0.031l-0.003,-0.03l-0.004,-0.03l-0.004,-0.03l-0.004,-0.029l-0.005,-0.03l-0.005,-0.03l-0.005,-0.029l-0.006,-0.029l-0.006,-0.029l-0.007,-0.029l-0.006,-0.029l-0.008,-0.028l-0.007,-0.029l-0.008,-0.028l-0.008,-0.029l-0.009,-0.028l-0.009,-0.028l-0.009,-0.027l-0.009,-0.028l-0.01,-0.027l-0.01,-0.028l-0.011,-0.027l-0.011,-0.027l-0.011,-0.027l-0.011,-0.026l-0.012,-0.027l-0.012,-0.026l-0.013,-0.026l-0.012,-0.027l-0.013,-0.025l-0.014,-0.026l-0.014,-0.026l-0.013,-0.025l-0.015,-0.025l-0.014,-0.025l-0.015,-0.025l-0.015,-0.024l-0.016,-0.025l-0.015,-0.024l-0.016,-0.024l-0.017,-0.024l-0.014,-0.02l-0.036,-0.05l-0.036,-0.046l-0.036,-0.045l-0.037,-0.044l-0.038,-0.043l-0.04,-0.042l-0.04,-0.042l-0.041,-0.04l-0.042,-0.039l-0.044,-0.038l-0.044,-0.038l-0.045,-0.036l-0.045,-0.035l-0.051,-0.037l-0.02,-0.014l-0.024,-0.016l-0.024,-0.016l-0.024,-0.016l-0.024,-0.015l-0.025,-0.015l-0.025,-0.015l-0.025,-0.015l-0.025,-0.014l-0.025,-0.014l-0.026,-0.014l-0.025,-0.013l-0.026,-0.013l-0.026,-0.013l-0.026,-0.012l-0.027,-0.012l-0.026,-0.012l-0.027,-0.012l-0.027,-0.011l-0.027,-0.011l-0.027,-0.01l-0.027,-0.01l-0.028,-0.01l-0.027,-0.01l-0.028,-0.009l-0.028,-0.009l-0.028,-0.008l-0.028,-0.008l-0.029,-0.008l-0.028,-0.008l-0.029,-0.007l-0.028,-0.007l-0.029,-0.006l-0.029,-0.006l-0.03,-0.006l-0.029,-0.006l-0.029,-0.005l-0.03,-0.004l-0.03,-0.005l-0.03,-0.004l-0.03,-0.003l-0.03,-0.004l-0.03,-0.003l-0.031,-0.002l-0.03,-0.002l-0.031,-0.002l-0.031,-0.001l-0.031,-0.001l-0.031,-0.001l-0.036,0l-99.451,0l-0.036,0l-0.031,0.001l-0.031,0.001l-0.031,0.001l-0.031,0.002l-0.03,0.002l-0.031,0.002l-0.03,0.003l-0.03,0.004l-0.03,0.003l-0.03,0.004l-0.03,0.005l-0.03,0.004l-0.029,0.005l-0.029,0.006l-0.03,0.006l-0.029,0.006l-0.029,0.006l-0.028,0.007l-0.029,0.007l-0.028,0.008l-0.029,0.008l-0.028,0.008l-0.028,0.008l-0.028,0.009l-0.028,0.009l-0.027,0.01l-0.028,0.01l-0.027,0.01l-0.027,0.01l-0.027,0.011l-0.027,0.011l-0.027,0.012l-0.026,0.012l-0.027,0.012l-0.026,0.012l-0.026,0.013l-0.026,0.013l-0.025,0.013l-0.026,0.014l-0.025,0.014l-0.025,0.014l-0.025,0.015l-0.025,0.015l-0.025,0.015l-0.024,0.015l-0.024,0.016l-0.024,0.016l-0.024,0.016l-0.02,0.014l-0.05,0.037l-0.046,0.035l-0.045,0.036l-0.044,0.037l-0.043,0.039l-0.042,0.039l-0.042,0.04l-0.04,0.042l-0.039,0.042l-0.039,0.043l-0.037,0.044l-0.036,0.045l-0.035,0.046l-0.037,0.05l-0.014,0.02l-0.016,0.024l-0.016,0.024l-0.016,0.024l-0.015,0.024l-0.015,0.025l-0.015,0.025l-0.015,0.025l-0.014,0.025l-0.014,0.025l-0.014,0.026l-0.013,0.025l-0.013,0.026l-0.013,0.026l-0.012,0.027l-0.012,0.026l-0.012,0.026l-0.012,0.027l-0.011,0.027l-0.011,0.027l-0.01,0.027l-0.01,0.027l-0.01,0.028l-0.01,0.027l-0.009,0.028l-0.009,0.028l-0.008,0.028l-0.008,0.028l-0.008,0.029l-0.008,0.028l-0.007,0.029l-0.007,0.029l-0.006,0.029l-0.006,0.029l-0.006,0.029l-0.006,0.029l-0.005,0.03l-0.004,0.029l-0.005,0.03l-0.004,0.03l-0.003,0.03l-0.004,0.03l-0.003,0.031l-0.002,0.03l-0.002,0.031l-0.002,0.031l-0.001,0.031l-0.001,0.031l-0.001,0.031l0,0.036l0,99.45l0,0.036l0.001,0.031l0.001,0.031l0.001,0.031l0.002,0.031l0.002,0.03l0.002,0.031l0.003,0.03l0.004,0.03l0.003,0.03l0.004,0.03l0.005,0.03l0.004,0.03l0.005,0.029l0.006,0.03l0.006,0.029l0.006,0.029l0.006,0.029l0.007,0.029l0.007,0.028l0.008,0.029l0.008,0.028l0.008,0.028l0.008,0.028l0.009,0.028l0.009,0.028l0.01,0.028l0.01,0.027l0.01,0.027l0.01,0.028l0.011,0.027l0.011,0.027l0.012,0.026l0.012,0.027l0.012,0.026l0.012,0.026l0.013,0.026l0.013,0.026l0.013,0.026l0.014,0.025l0.014,0.026l0.014,0.025l0.015,0.025l0.015,0.025l0.015,0.024l0.015,0.025l0.016,0.024l0.016,0.024l0.016,0.024l0.014,0.02l0.037,0.05l0.035,0.046l0.036,0.045l0.037,0.044l0.039,0.043l0.039,0.042l0.04,0.041l0.042,0.041l0.042,0.039l0.043,0.038l0.044,0.037l0.045,0.037l0.046,0.035l0.05,0.036l0.02,0.014l0.024,0.017l0.024,0.016l0.024,0.015l0.024,0.016l0.025,0.015l0.025,0.015l0.025,0.014l0.025,0.015l0.025,0.014l0.026,0.013l0.025,0.014l0.026,0.013l0.026,0.012l0.026,0.013l0.027,0.012l0.026,0.012l0.027,0.011l0.027,0.011l0.027,0.011l0.027,0.011l0.027,0.01l0.028,0.01l0.027,0.009l0.028,0.009l0.028,0.009l0.028,0.009l0.028,0.008l0.028,0.008l0.029,0.007l0.029,0.008l0.028,0.006l0.029,0.007l0.029,0.006l0.03,0.006l0.029,0.005l0.029,0.005l0.03,0.005l0.03,0.004l0.03,0.004l0.03,0.004l0.03,0.003l0.03,0.003l0.031,0.003l0.03,0.002l0.031,0.002l0.031,0.001l0.031,0.001l0.031,0.001l0.036,0ZM18.965,123.825l-0.065,-0.001l-0.069,-0.001l-0.069,-0.002l-0.069,-0.003l-0.068,-0.004l-0.069,-0.005l-0.068,-0.005l-0.068,-0.007l-0.068,-0.007l-0.068,-0.008l-0.067,-0.009l-0.067,-0.01l-0.067,-0.011l-0.067,-0.011l-0.066,-0.013l-0.066,-0.013l-0.066,-0.014l-0.065,-0.014l-0.066,-0.016l-0.065,-0.016l-0.064,-0.017l-0.064,-0.018l-0.065,-0.019l-0.063,-0.019l-0.063,-0.02l-0.063,-0.021l-0.063,-0.022l-0.062,-0.022l-0.062,-0.023l-0.062,-0.024l-0.061,-0.024l-0.061,-0.026l-0.06,-0.026l-0.06,-0.026l-0.06,-0.028l-0.059,-0.028l-0.059,-0.029l-0.058,-0.029l-0.058,-0.03l-0.058,-0.031l-0.057,-0.032l-0.057,-0.032l-0.056,-0.033l-0.056,-0.033l-0.055,-0.034l-0.055,-0.035l-0.055,-0.035l-0.054,-0.036l-0.053,-0.037l-0.057,-0.04l-0.101,-0.074l-0.103,-0.079l-0.101,-0.081l-0.098,-0.083l-0.097,-0.086l-0.095,-0.088l-0.092,-0.09l-0.091,-0.093l-0.088,-0.094l-0.085,-0.097l-0.084,-0.099l-0.081,-0.101l-0.079,-0.102l-0.074,-0.102l-0.039,-0.056l-0.037,-0.054l-0.036,-0.054l-0.035,-0.054l-0.035,-0.055l-0.034,-0.056l-0.034,-0.056l-0.033,-0.056l-0.032,-0.057l-0.031,-0.057l-0.031,-0.057l-0.03,-0.058l-0.03,-0.059l-0.029,-0.059l-0.028,-0.059l-0.027,-0.06l-0.027,-0.06l-0.026,-0.06l-0.025,-0.061l-0.025,-0.061l-0.023,-0.062l-0.023,-0.062l-0.023,-0.062l-0.021,-0.062l-0.021,-0.063l-0.02,-0.064l-0.02,-0.063l-0.018,-0.064l-0.018,-0.065l-0.017,-0.064l-0.017,-0.065l-0.015,-0.066l-0.015,-0.065l-0.014,-0.066l-0.013,-0.066l-0.012,-0.066l-0.011,-0.067l-0.011,-0.067l-0.01,-0.067l-0.009,-0.067l-0.008,-0.068l-0.007,-0.068l-0.007,-0.068l-0.006,-0.068l-0.004,-0.069l-0.004,-0.068l-0.003,-0.069l-0.002,-0.069l-0.002,-0.069l0,-0.065l0,-99.468l0,-0.065l0.002,-0.069l0.002,-0.069l0.003,-0.069l0.004,-0.069l0.004,-0.068l0.006,-0.068l0.007,-0.069l0.007,-0.067l0.008,-0.068l0.009,-0.067l0.01,-0.067l0.011,-0.067l0.011,-0.067l0.012,-0.066l0.013,-0.066l0.014,-0.066l0.015,-0.066l0.015,-0.065l0.017,-0.065l0.017,-0.065l0.018,-0.064l0.018,-0.064l0.02,-0.064l0.02,-0.063l0.021,-0.063l0.021,-0.063l0.023,-0.062l0.023,-0.062l0.023,-0.061l0.025,-0.062l0.025,-0.06l0.026,-0.061l0.027,-0.06l0.027,-0.059l0.028,-0.06l0.029,-0.059l0.03,-0.058l0.03,-0.058l0.031,-0.058l0.031,-0.057l0.032,-0.056l0.033,-0.057l0.034,-0.056l0.034,-0.055l0.035,-0.055l0.035,-0.054l0.036,-0.054l0.037,-0.054l0.039,-0.057l0.074,-0.101l0.079,-0.103l0.081,-0.1l0.084,-0.099l0.085,-0.097l0.088,-0.095l0.091,-0.092l0.092,-0.09l0.095,-0.088l0.096,-0.086l0.099,-0.084l0.101,-0.081l0.103,-0.079l0.101,-0.073l0.057,-0.04l0.053,-0.037l0.054,-0.036l0.055,-0.035l0.055,-0.035l0.055,-0.034l0.056,-0.034l0.056,-0.033l0.057,-0.032l0.057,-0.031l0.058,-0.031l0.058,-0.03l0.058,-0.03l0.059,-0.028l0.059,-0.029l0.06,-0.027l0.06,-0.027l0.06,-0.026l0.061,-0.025l0.061,-0.024l0.062,-0.024l0.062,-0.023l0.062,-0.023l0.063,-0.021l0.063,-0.021l0.063,-0.02l0.064,-0.02l0.064,-0.018l0.064,-0.018l0.064,-0.017l0.065,-0.017l0.066,-0.015l0.065,-0.015l0.066,-0.014l0.066,-0.013l0.066,-0.012l0.067,-0.011l0.067,-0.011l0.067,-0.01l0.067,-0.009l0.068,-0.008l0.068,-0.007l0.068,-0.007l0.068,-0.006l0.069,-0.004l0.068,-0.004l0.069,-0.003l0.069,-0.002l0.069,-0.002l0.065,0l99.464,0l0,1.5l0.01,-1.5l0.06,0l0.069,0.002l0.069,0.002l0.069,0.003l0.068,0.004l0.069,0.004l0.068,0.006l0.068,0.007l0.068,0.007l0.068,0.008l0.067,0.009l0.067,0.01l0.067,0.011l0.067,0.011l0.066,0.012l0.066,0.013l0.066,0.014l0.065,0.015l0.066,0.015l0.064,0.017l0.065,0.017l0.064,0.018l0.064,0.018l0.064,0.02l0.063,0.02l0.063,0.021l0.063,0.021l0.062,0.023l0.062,0.023l0.062,0.024l0.061,0.024l0.061,0.025l0.06,0.026l0.06,0.027l0.06,0.027l0.059,0.029l0.059,0.028l0.058,0.03l0.058,0.03l0.058,0.031l0.057,0.031l0.057,0.032l0.056,0.033l0.056,0.034l0.055,0.034l0.055,0.035l0.055,0.035l0.054,0.036l0.053,0.037l0.057,0.04l0.101,0.073l0.103,0.079l0.101,0.081l0.099,0.084l0.096,0.086l0.095,0.088l0.092,0.09l0.091,0.092l0.088,0.095l0.086,0.097l0.083,0.098l0.081,0.101l0.079,0.103l0.074,0.101l0.04,0.057l0.036,0.053l0.036,0.054l0.036,0.055l0.035,0.055l0.034,0.055l0.033,0.056l0.033,0.056l0.032,0.057l0.032,0.057l0.03,0.058l0.031,0.058l0.029,0.058l0.029,0.059l0.028,0.059l0.027,0.06l0.027,0.06l0.026,0.06l0.025,0.061l0.025,0.061l0.024,0.062l0.023,0.062l0.022,0.062l0.022,0.063l0.021,0.063l0.02,0.063l0.019,0.064l0.019,0.064l0.018,0.064l0.017,0.065l0.016,0.065l0.016,0.065l0.014,0.066l0.014,0.065l0.013,0.067l0.013,0.066l0.011,0.067l0.011,0.066l0.01,0.067l0.009,0.068l0.008,0.068l0.007,0.067l0.007,0.068l0.005,0.069l0.005,0.068l0.004,0.069l0.003,0.069l0.002,0.069l0.001,0.069l0.001,0.064l0,99.469l-0.001,0.065l-0.001,0.069l-0.002,0.069l-0.003,0.069l-0.004,0.068l-0.005,0.069l-0.005,0.068l-0.007,0.068l-0.007,0.068l-0.008,0.068l-0.009,0.067l-0.01,0.067l-0.011,0.067l-0.011,0.067l-0.013,0.066l-0.013,0.066l-0.014,0.066l-0.014,0.066l-0.016,0.065l-0.016,0.065l-0.017,0.064l-0.018,0.065l-0.019,0.064l-0.019,0.063l-0.02,0.064l-0.021,0.063l-0.022,0.062l-0.022,0.063l-0.023,0.062l-0.024,0.061l-0.025,0.061l-0.025,0.061l-0.026,0.061l-0.027,0.06l-0.027,0.059l-0.028,0.06l-0.029,0.058l-0.029,0.059l-0.031,0.058l-0.03,0.057l-0.032,0.058l-0.032,0.056l-0.033,0.057l-0.033,0.055l-0.034,0.056l-0.035,0.055l-0.036,0.054l-0.036,0.054l-0.036,0.054l-0.04,0.057l-0.074,0.101l-0.079,0.102l-0.081,0.101l-0.083,0.099l-0.086,0.097l-0.088,0.094l-0.091,0.093l-0.092,0.09l-0.095,0.088l-0.096,0.086l-0.099,0.083l-0.101,0.082l-0.103,0.078l-0.101,0.074l-0.057,0.04l-0.053,0.037l-0.054,0.036l-0.055,0.035l-0.055,0.035l-0.055,0.034l-0.056,0.033l-0.056,0.033l-0.057,0.032l-0.057,0.032l-0.058,0.031l-0.058,0.03l-0.058,0.029l-0.059,0.029l-0.059,0.028l-0.06,0.028l-0.06,0.026l-0.06,0.026l-0.061,0.026l-0.061,0.024l-0.062,0.024l-0.062,0.023l-0.062,0.022l-0.063,0.022l-0.063,0.021l-0.063,0.02l-0.064,0.019l-0.064,0.019l-0.064,0.018l-0.065,0.017l-0.064,0.016l-0.066,0.016l-0.065,0.014l-0.066,0.014l-0.066,0.013l-0.067,0.013l-0.066,0.011l-0.067,0.011l-0.067,0.01l-0.067,0.009l-0.068,0.008l-0.068,0.007l-0.068,0.007l-0.068,0.005l-0.069,0.005l-0.068,0.004l-0.069,0.003l-0.069,0.002l-0.069,0.001l-0.065,0.001l-99.469,0Z" style="fill:#fff;"/></g></svg>